PathFileType	4	(X/Y/Z)	C:\Users\Basilio\Documents\Thesis Gigler\squatting_fais\c3dfiles\038\SLS_back_pre3\markers_experimental.trc
DataRate	CameraRate	NumFrames	NumMarkers	Units	OrigDataRate	OrigDataStartFrame	OrigNumFrames
200.000000	200.000000	4	63	mm	200.000000	469	1878
Frame#	Time	FHD			LBHD			RBHD			C7			T10			CLAV			LSHO			LUUPA			LMUPA			LDUPA			LLEP			LMEP			LRAD			LUL			LRFIN			RSHO			RUPA1			RMUPA			RDUPA			RLEP			RMEP			RRAD			RUL			RUFIN			LASI			RASI			USACR			LSACR			RSACR			LTHI1			LTHI2			LTHI3			LTHI4			LLFC			LMFC			LTIB1			LTIB2			LTIB3			LTIB4			LLMAL			LMMAL			LHEE			LMT1			LMT2			LMT5			RTHI			RTHI2			RTHI3			RTHI4			RLFC			RMFC			RTIB1			RTIB2			RTIB3			RTIB4			RLMAL			RMMAL			RHEE			RMT1			RMT2			RMT5			*61			*62			
		X1	Y1	Z1	X2	Y2	Z2	X3	Y3	Z3	X4	Y4	Z4	X5	Y5	Z5	X6	Y6	Z6	X7	Y7	Z7	X8	Y8	Z8	X9	Y9	Z9	X10	Y10	Z10	X11	Y11	Z11	X12	Y12	Z12	X13	Y13	Z13	X14	Y14	Z14	X15	Y15	Z15	X16	Y16	Z16	X17	Y17	Z17	X18	Y18	Z18	X19	Y19	Z19	X20	Y20	Z20	X21	Y21	Z21	X22	Y22	Z22	X23	Y23	Z23	X24	Y24	Z24	X25	Y25	Z25	X26	Y26	Z26	X27	Y27	Z27	X28	Y28	Z28	X29	Y29	Z29	X30	Y30	Z30	X31	Y31	Z31	X32	Y32	Z32	X33	Y33	Z33	X34	Y34	Z34	X35	Y35	Z35	X36	Y36	Z36	X37	Y37	Z37	X38	Y38	Z38	X39	Y39	Z39	X40	Y40	Z40	X41	Y41	Z41	X42	Y42	Z42	X43	Y43	Z43	X44	Y44	Z44	X45	Y45	Z45	X46	Y46	Z46	X47	Y47	Z47	X48	Y48	Z48	X49	Y49	Z49	X50	Y50	Z50	X51	Y51	Z51	X52	Y52	Z52	X53	Y53	Z53	X54	Y54	Z54	X55	Y55	Z55	X56	Y56	Z56	X57	Y57	Z57	X58	Y58	Z58	X59	Y59	Z59	X60	Y60	Z60	X61	Y61	Z61	X62	Y62	Z62	X63	Y63	Z63	

470	2.345	-187.4578552246094	1770.21533203125	-1045.344482421875	-343.1138610839844	1722.261596679688	-1104.808227539063	-335.1210021972657	1709.8408203125	-960.3711547851565	-391.2036132812501	1544.656616210938	-1033.59716796875	-398.5524291992189	1262.292846679688	-1021.935974121094	-249.7824401855469	1515.395385742188	-1043.410400390625	-316.3216552734376	1554.573974609375	-1189.692260742188	-189.6338043212891	1447.969604492188	-1338.891235351563	-152.7616729736328	1479.13232421875	-1324.738403320313	-124.1234893798828	1442.3798828125	-1361.703247070313	-62.80945587158205	1433.9814453125	-1375.095458984375	-58.81958770751955	1361.497192382813	-1343.43896484375	221.9134979248047	1414.471923828125	-1272.362548828125	230.3517608642579	1407.309204101563	-1343.631713867188	301.3440246582032	1438.746704101563	-1265.684814453125	-303.2114868164063	1550.748291015625	-894.8475341796877	-157.7240753173828	1480.295654296875	-768.6323242187502	-118.2115173339844	1492.915283203125	-794.9976196289065	-92.63001251220705	1463.430053710938	-748.6480102539064	-20.16071701049805	1449.615112304688	-735.0392456054689	-21.49638938903809	1374.927490234375	-765.7043457031251	251.2423706054688	1437.352294921875	-825.835632324219	265.0098876953126	1431.033569335938	-756.6417846679689	332.4346618652344	1467.69287109375	-823.2466430664065	-226.2189178466797	1063.250244140625	-1124.8818359375	-244.2593688964844	1086.26953125	-873.5729980468752	-403.5321350097657	1124.430786132813	-1013.347900390625	-415.4078674316407	1093.793334960938	-1039.951049804688	-416.643280029297	1096.662231445313	-983.054870605469	-265.0993957519532	741.4085083007814	-1154.758422851563	-237.5851593017579	661.7700805664064	-1139.193359375	-192.7971496582032	668.2554321289064	-1114.7666015625	-267.3290710449219	615.1861572265626	-1118.839721679688	-265.7463989257813	553.0299072265626	-1106.12939453125	-265.4718933105469	553.4851074218751	-986.2744140625002	-253.7760620117188	367.1784362792969	-1019.948974609375	-296.2022705078126	324.3455200195313	-1083.862426757813	-261.1446838378907	318.4529113769532	-1052.203735351563	-285.3433532714844	243.8296966552735	-1019.088989257813	-381.0651855468751	119.6987457275391	-1035.180053710938	-343.4071044921876	133.3885192871094	-963.324645996094	-432.8887023925782	101.0755004882813	-980.7070312500002	-233.9229583740235	45.54943084716798	-974.7543945312502	-225.4300384521485	46.07772064208985	-1024.958984375	-270.2203369140626	36.53454208374024	-1070.971069335938	-273.7501220703126	816.3858642578127	-802.7971801757815	-234.7253875732422	761.8834228515626	-792.5668945312502	-201.8458099365235	764.3609008789064	-796.9718017578127	-260.1718750000001	680.4560546875001	-799.5379028320315	-255.7798614501954	573.4420166015626	-809.395202636719	-250.0507049560547	560.7511596679689	-922.102233886719	-365.8291320800782	440.3988037109376	-834.4405517578127	-477.3404541015626	468.6012268066407	-818.7648925781252	-450.0106201171876	429.8453674316407	-819.3430175781252	-484.1497497558595	392.1546325683595	-850.882507324219	-619.8265991210939	390.2991333007814	-841.0823364257815	-590.6286621093751	355.4638671875001	-912.243591308594	-659.0368041992189	425.1238403320314	-920.4125976562502	-630.0887451171876	214.5731506347657	-878.7496337890627	-639.2214965820314	221.2278747558594	-833.0062255859377	-677.0665283203126	262.4205322265626	-803.066589355469	nan	nan	nan	nan	nan	nan	
471	2.35	-187.4147338867188	1770.22021484375	-1045.16748046875	-343.0039672851563	1722.29296875	-1104.68310546875	-335.0578002929688	1709.8466796875	-960.2810058593752	-391.2869873046876	1544.693359375	-1033.421630859375	-398.4724731445314	1262.264892578125	-1021.973388671875	-250.3112335205079	1515.31787109375	-1043.102905273438	-316.2681274414063	1554.69775390625	-1189.515625	-189.2833404541016	1448.783203125	-1338.917602539063	-152.5852966308594	1480.044189453125	-1324.443481445313	-123.7340850830078	1443.548706054688	-1361.73193359375	-62.12327575683595	1435.082153320313	-1374.858642578125	-58.07486724853517	1362.85498046875	-1343.59716796875	222.4278564453126	1416.460693359375	-1272.093505859375	230.7684326171876	1409.495483398438	-1343.515991210938	301.6156921386719	1441.176513671875	-1265.289916992188	-303.1753540039063	1550.782470703125	-894.8449707031252	-157.3597564697266	1481.142456054688	-768.9237060546877	-117.9442977905274	1493.638916015625	-795.2280273437502	-92.27440643310548	1464.862060546875	-748.6033325195314	-19.64703178405762	1450.919921875	-735.3165283203126	-20.67536354064942	1376.619384765625	-765.7910766601564	251.7094116210938	1439.525268554688	-826.1751098632815	265.4750061035157	1433.5791015625	-756.9016723632814	332.9085083007813	1470.643798828125	-823.6407470703127	-226.1123809814454	1063.234375	-1124.78662109375	-244.3912506103516	1086.2060546875	-873.508728027344	-403.4872436523439	1124.396362304688	-1013.471496582031	-415.3854370117189	1093.737060546875	-1040.089111328125	-416.6432495117189	1096.694580078125	-983.1717529296877	-264.7343139648438	741.3443603515626	-1154.528198242188	-237.136947631836	662.0828247070314	-1138.795166015625	-192.4824218750001	668.1094970703126	-1114.308471679688	-267.0807495117188	615.1338500976564	-1118.642333984375	-265.5507812500001	552.9953613281251	-1105.886962890625	-265.5151672363282	553.4908447265626	-985.9138183593752	-253.7464752197266	367.2178344726563	-1019.5126953125	-296.1388549804688	324.3803710937501	-1083.6767578125	-260.9892272949219	318.3569946289063	-1051.785766601563	-285.2802734375001	243.7960510253907	-1018.851013183594	-381.0149230957032	119.7080459594727	-1035.07373046875	-343.4495239257813	133.376953125	-963.2026367187502	-432.8912048339845	101.0664596557617	-980.6618652343752	-233.9613952636719	45.5088005065918	-974.672058105469	-225.4029998779297	46.12140274047852	-1024.922973632813	-270.1288146972657	36.60626220703126	-1070.863403320313	-273.8586730957032	816.3746337890627	-802.7858886718752	-234.9113311767579	761.7999877929689	-792.5065917968752	-201.9751892089844	764.3363647460939	-796.9478149414065	-260.3792114257813	680.4120483398439	-799.548278808594	-256.0557861328126	573.4996948242189	-809.317077636719	-250.1968994140626	560.7605590820314	-922.0837402343752	-366.2017517089844	440.528289794922	-834.3522949218752	-477.6903076171876	469.1098632812501	-818.8711547851565	-450.4370422363282	430.1984863281251	-819.4651489257815	-484.6179199218751	392.4488830566407	-850.8631591796877	-620.3103637695314	391.0683593750001	-841.2197265625002	-591.0390625000001	355.7965393066407	-912.4932861328127	-659.7366333007814	425.7911376953126	-920.8160400390627	-631.1549682617189	215.1676940917969	-878.9536132812502	-640.4243164062501	222.0958709716797	-833.181091308594	-678.0347290039064	263.2145996093751	-803.244323730469	nan	nan	nan	nan	nan	nan	
472	2.355	-187.3473815917969	1770.158081054688	-1045.137573242188	-342.9757995605469	1722.451782226563	-1104.541625976563	-335.0231628417969	1709.844116210938	-960.1702270507815	-391.4204101562501	1544.729248046875	-1033.199584960938	-398.5453186035157	1262.177734375	-1022.069091796875	-250.2384948730469	1515.307983398438	-1042.978759765625	-316.3205871582032	1554.805053710938	-1189.307495117188	-189.0587463378907	1449.6650390625	-1338.846435546875	-152.3792419433594	1480.981079101563	-1324.303955078125	-123.4824295043946	1444.686767578125	-1361.4892578125	-62.21203613281251	1436.695678710938	-1374.902099609375	-57.65068435668947	1364.13623046875	-1343.48388671875	222.6624298095704	1418.76611328125	-1272.039306640625	231.2440185546876	1411.84130859375	-1343.290405273438	301.8840332031251	1443.426513671875	-1264.85986328125	-303.1777648925782	1550.823608398438	-894.9144287109377	-157.1520538330078	1481.915893554688	-768.8877563476565	-117.7260131835938	1494.582641601563	-795.5295410156252	-92.18808746337892	1465.871826171875	-748.7878417968751	-19.29822158813477	1452.552856445313	-735.5110473632814	-20.12894630432129	1377.909912109375	-765.9577636718751	252.2777862548829	1441.823486328125	-826.4849853515627	266.2070312500001	1435.904907226563	-757.3395385742189	333.1437377929688	1473.106201171875	-823.9521484375002	-225.870101928711	1063.244018554688	-1124.738037109375	-244.473617553711	1086.143310546875	-873.4756469726565	-403.391571044922	1124.37060546875	-1013.651123046875	-415.2925415039064	1093.765869140625	-1040.256469726563	-416.7384643554689	1096.697387695313	-983.3251953125002	-264.4168701171876	741.2907714843751	-1154.265747070313	-236.7678833007813	662.0955200195314	-1138.505126953125	-192.3549804687501	668.1354370117189	-1113.957641601563	-266.8214721679688	615.1261596679689	-1118.484130859375	-265.3286437988282	552.9849853515626	-1105.640625	-265.4766540527344	553.5518798828126	-985.5933837890627	-253.7424774169922	367.2238769531251	-1019.177429199219	-295.5974731445313	324.3779602050782	-1083.730834960938	-260.9149169921876	318.2534179687501	-1051.448486328125	-285.2251586914063	243.7737426757813	-1018.698486328125	-380.9925231933594	119.752685546875	-1034.888427734375	-343.4996948242188	133.3296356201172	-962.9890747070315	-432.9000549316407	101.0707702636719	-980.6361083984377	-233.8556823730469	45.54945373535157	-974.7032470703127	-225.3405151367188	46.21026992797852	-1024.851318359375	-270.0971984863282	36.64430618286134	-1070.8125	-274.0404052734376	816.259216308594	-802.8154907226565	-235.2301483154297	762.1207885742189	-792.4493408203127	-202.1279754638672	764.2047119140626	-796.8923950195315	-260.6012268066407	680.3593750000001	-799.563415527344	-256.2457275390626	573.4806518554689	-809.3255615234377	-250.3790588378907	560.7717285156251	-922.0613403320315	-366.5066223144532	440.6882934570314	-834.3745727539065	-477.9466857910157	469.5083618164064	-818.9660644531252	-450.7264709472657	430.615447998047	-819.6538696289065	-484.9435424804689	392.8165283203126	-850.9863281250002	-620.7394409179689	391.8266601562501	-841.345397949219	-591.7546386718751	356.3691406250001	-912.3071289062502	-659.6572875976564	426.6990051269532	-920.6527099609377	-632.0353393554689	216.3613739013672	-879.253356933594	-641.1947631835939	222.5042572021485	-833.3913574218752	-678.7744140625001	264.1520690917969	-803.2883911132815	nan	nan	nan	nan	nan	nan	
473	2.36	-187.3724365234375	1770.161743164063	-1045.013549804688	-342.9706115722657	1722.453247070313	-1104.3916015625	-335.0309143066407	1709.817260742188	-960.0692138671877	-391.535369873047	1544.772583007813	-1032.978271484375	-398.2969055175782	1262.216674804688	-1022.07275390625	-250.2406005859376	1515.313110351563	-1042.835693359375	-316.3222656250001	1554.913330078125	-1189.049926757813	-188.7689971923828	1450.675903320313	-1338.713989257813	-152.0885772705078	1482.05419921875	-1324.170043945313	-123.154296875	1445.864501953125	-1361.550048828125	-61.87062072753908	1438.052124023438	-1374.718505859375	-57.10080337524415	1365.56787109375	-1343.53466796875	223.4816131591797	1420.021606445313	-1271.6943359375	231.8681182861329	1414.220092773438	-1343.030639648438	302.2167663574219	1445.561767578125	-1264.568725585938	-303.1418457031251	1550.846313476563	-894.8985595703127	-156.8151245117188	1482.96875	-768.9365234375002	-117.6460800170899	1495.510864257813	-795.7032470703127	-91.77862548828126	1466.915771484375	-748.9169921875001	-18.89377212524414	1453.779418945313	-735.7604370117189	-19.52785301208496	1379.413940429688	-766.2105102539064	252.7428588867188	1443.710083007813	-826.8653564453127	266.4878234863282	1437.921997070313	-757.8195190429689	333.4212341308594	1475.56884765625	-824.3109130859377	-225.6837768554688	1063.25634765625	-1124.66943359375	-244.5289916992188	1086.10595703125	-873.420349121094	-403.3730773925782	1124.422607421875	-1013.764404296875	-415.1563110351564	1093.804321289063	-1040.415283203125	-416.5159301757814	1096.683227539063	-983.4912109375002	-264.0960693359376	741.2977294921876	-1154.039306640625	-236.4598236083985	662.0263061523439	-1138.138671875	-191.9830932617188	668.1439208984376	-1113.499755859375	-266.9796752929688	615.4161376953126	-1118.30712890625	-265.0393066406251	552.9515991210939	-1105.407836914063	-265.6799011230469	553.5411987304689	-985.320983886719	-253.6805877685547	367.2261047363282	-1018.819213867188	-295.8947143554688	324.3986206054688	-1083.236572265625	-260.8546142578126	318.3096923828126	-1051.2470703125	-285.3027038574219	243.6531524658204	-1018.59521484375	-380.9685974121094	119.7435150146485	-1034.790405273438	-343.4785156250001	133.3088531494141	-962.8768310546877	-432.9320678710939	101.0404129028321	-980.558532714844	-233.8675231933594	45.47281646728516	-974.644470214844	-225.3344726562501	46.18693542480469	-1024.8212890625	-270.0691833496094	36.69916534423829	-1070.743530273438	-274.2008972167969	816.226257324219	-802.8753051757815	-235.3230590820313	762.0848999023439	-792.374694824219	-202.2515869140626	764.1622924804689	-796.8665771484377	-260.8325195312501	680.1883544921876	-799.5195922851565	-256.3551330566407	573.5319213867189	-809.3447875976565	-250.5387268066407	560.8503417968751	-922.071228027344	-366.8489685058594	440.833953857422	-834.4104003906252	-478.334930419922	469.9495544433595	-819.2092285156252	-451.1374511718751	430.9722290039064	-819.7581176757815	-485.3336791992189	393.088348388672	-851.3981933593752	-621.0834350585939	392.4104919433595	-841.496276855469	-592.1324462890626	357.0996398925782	-912.5877075195315	-660.2313232421876	427.5546875000001	-920.8518676757815	-632.8658447265626	217.0833435058594	-879.286804199219	-642.2156372070314	223.5389709472657	-833.6695556640627	-679.3186645507814	264.9488830566407	-803.3999633789065	nan	nan	nan	nan	nan	nan	
